<svg xmlns="http://www.w3.org/2000/svg" viewBox="107 98 983 372" role="img" aria-label="YÖK logo only">
  <title>YÖK logo</title>
  <g fill="#e31e27">
    <polygon points="188,469 243,466 621,99 570,99 431,234 295,98 245,98 405,257 361,297 158,100 107,100 337,324"/>
    <polygon points="1023,98 972,98 591,469 641,469 768,346 896,469 941,469 797,319 841,276 1042,469 1089,469 867,253"/>
    <polygon points="751,100 699,100 324,469 371,469"/>
    <polygon points="891,100 838,100 463,469 511,469"/>
  </g>
</svg>